<svg width="142" height="155" viewBox="0 0 142 155" fill="none" xmlns="http://www.w3.org/2000/svg">
<path d="M56.3846 111.375L66 126.375L75.6154 111.375M56.3846 111.375L53.5 106.875V58.875H66M56.3846 111.375H66M66 111.375H75.6154M66 111.375V58.875M75.6154 111.375L78.5 106.875V58.875H66" stroke="#AA00FF" stroke-width="7"/>
<path d="M9.5 144.875V10.3751C53.5 10.3749 132 -3.625 132 80.3759C132 153.375 57.5 144.875 9.5 144.875Z" stroke="#AA00FF" stroke-width="19"/>
<path d="M54 34.375H79C80.933 34.375 82.5 35.942 82.5 37.875V48.375H50.5V37.875C50.5 35.942 52.067 34.375 54 34.375Z" fill="#AA00FF" stroke="#AA00FF"/>
</svg>
